<svg xmlns="http://www.w3.org/2000/svg" viewBox="0 0 1440 320"><path fill="#e95d62" fill-opacity="1" d="M0,160L24,138.7C48,117,96,75,144,96C192,117,240,203,288,224C336,245,384,203,432,176C480,149,528,139,576,128C624,117,672,107,720,85.3C768,64,816,32,864,16C912,0,960,0,1008,48C1056,96,1104,192,1152,234.7C1200,277,1248,267,1296,250.7C1344,235,1392,213,1416,202.7L1440,192L1440,0L1416,0C1392,0,1344,0,1296,0C1248,0,1200,0,1152,0C1104,0,1056,0,1008,0C960,0,912,0,864,0C816,0,768,0,720,0C672,0,624,0,576,0C528,0,480,0,432,0C384,0,336,0,288,0C240,0,192,0,144,0C96,0,48,0,24,0L0,0Z"></path></svg>